<svg width="493" height="57" viewBox="0 0 493 57" fill="none" xmlns="http://www.w3.org/2000/svg">
<circle cx="15.4962" cy="36.2286" r="15.4962" fill="#444444"/>
<circle cx="72.2461" cy="36.2286" r="15.4962" fill="#DDDDDD"/>
<mask id="mask0_1671_3477" style="mask-type:alpha" maskUnits="userSpaceOnUse" x="5" y="0" width="77" height="38">
<rect x="5.65363" width="76.2246" height="37.9029" fill="#C4C4C4"/>
</mask>
<g mask="url(#mask0_1671_3477)">
<mask id="mask1_1671_3477" style="mask-type:alpha" maskUnits="userSpaceOnUse" x="5" y="0" width="77" height="106">
<path fill-rule="evenodd" clip-rule="evenodd" d="M43.7791 0.576569C22.8615 0.576569 5.90448 17.0352 5.90448 37.3378V105.359H24.8973V39.0945C24.8973 28.9731 33.3508 20.7681 43.7788 20.7681C54.2067 20.7681 62.6602 28.9731 62.6602 39.0945V105.359H81.6538V37.3378C81.6538 17.0351 64.6967 0.576569 43.7791 0.576569Z" fill="#E9BCFF"/>
</mask>
<g mask="url(#mask1_1671_3477)">
<path d="M5.90533 38.4513C5.90533 17.5337 22.8624 0.57663 43.78 0.57663C64.6976 0.57663 81.6546 17.5337 81.6546 38.4513V105.359H5.90533V38.4513Z" fill="#E9BCFF"/>
<path d="M10.2013 39.0326C10.2013 20.4598 25.2576 5.40356 43.8304 5.40356C62.4032 5.40356 77.4595 20.4598 77.4595 39.0327V112.066H10.2013V39.0326Z" fill="#2C98F3"/>
<path d="M14.6187 38.9455C14.6187 23.0877 27.474 10.2323 43.3319 10.2323C59.1897 10.2323 72.0451 23.0877 72.0451 38.9455V122.821H14.6187V38.9455Z" fill="#58C971"/>
<path d="M19.9821 39.5171C19.9821 26.3742 30.6365 15.7198 43.7795 15.7198C56.9224 15.7198 67.5768 26.3742 67.5768 39.5171V136.209H19.9821V39.5171Z" fill="#FFCA42"/>
</g>
</g>
<path d="M148.983 44.6467C142.835 44.6467 137.757 42.593 133.749 38.4856C129.742 34.3783 127.738 29.3125 127.738 23.2884C127.738 17.2252 129.742 12.1594 133.749 8.09119C137.757 3.98383 142.835 1.93016 148.983 1.93016C152.68 1.93016 156.084 2.8103 159.197 4.5706C162.349 6.29178 164.8 8.63884 166.551 11.6118L159.606 15.6605C158.594 13.8219 157.154 12.3941 155.287 11.3771C153.419 10.3209 151.318 9.79281 148.983 9.79281C145.014 9.79281 141.804 11.0446 139.353 13.5481C136.94 16.0516 135.734 19.2984 135.734 23.2884C135.734 27.2393 136.94 30.4665 139.353 32.97C141.804 35.4736 145.014 36.7253 148.983 36.7253C151.318 36.7253 153.419 36.2168 155.287 35.1997C157.193 34.1436 158.633 32.7158 159.606 30.9164L166.551 34.965C164.8 37.938 162.368 40.3046 159.256 42.0649C156.143 43.7861 152.718 44.6467 148.983 44.6467Z" fill="black"/>
<path d="M177.682 32.2659C178.694 35.943 181.437 37.7815 185.912 37.7815C188.791 37.7815 190.97 36.8036 192.449 34.8477L198.519 38.3683C195.639 42.5539 191.398 44.6467 185.795 44.6467C180.97 44.6467 177.098 43.1798 174.18 40.2459C171.262 37.3121 169.803 33.6155 169.803 29.1561C169.803 24.7358 171.242 21.0587 174.122 18.1249C177.001 15.1519 180.698 13.6655 185.211 13.6655C189.492 13.6655 193.013 15.1519 195.776 18.1249C198.577 21.0978 199.978 24.7749 199.978 29.1561C199.978 30.134 199.881 31.1706 199.686 32.2659H177.682ZM177.565 26.3983H192.449C192.021 24.4033 191.126 22.9168 189.764 21.9389C188.441 20.9609 186.923 20.4719 185.211 20.4719C183.188 20.4719 181.515 21 180.192 22.0562C178.869 23.0733 177.993 24.5206 177.565 26.3983Z" fill="black"/>
<path d="M205.234 43.8252V0.991333H212.764V43.8252H205.234Z" fill="black"/>
<path d="M226.017 32.2659C227.029 35.943 229.772 37.7815 234.247 37.7815C237.126 37.7815 239.305 36.8036 240.784 34.8477L246.854 38.3683C243.974 42.5539 239.733 44.6467 234.13 44.6467C229.305 44.6467 225.433 43.1798 222.515 40.2459C219.597 37.3121 218.137 33.6155 218.137 29.1561C218.137 24.7358 219.577 21.0587 222.456 18.1249C225.336 15.1519 229.032 13.6655 233.546 13.6655C237.826 13.6655 241.348 15.1519 244.11 18.1249C246.912 21.0978 248.313 24.7749 248.313 29.1561C248.313 30.134 248.216 31.1706 248.021 32.2659H226.017ZM225.9 26.3983H240.784C240.356 24.4033 239.461 22.9168 238.099 21.9389C236.776 20.9609 235.258 20.4719 233.546 20.4719C231.523 20.4719 229.85 21 228.527 22.0562C227.204 23.0733 226.328 24.5206 225.9 26.3983Z" fill="black"/>
<path d="M261.098 19.5331C261.799 17.6555 262.947 16.2472 264.542 15.3084C266.176 14.3696 267.986 13.9002 269.97 13.9002V22.3496C267.674 22.0758 265.612 22.5452 263.783 23.7578C261.993 24.9705 261.098 26.985 261.098 29.8015V43.8252H253.569V14.4869H261.098V19.5331Z" fill="black"/>
<path d="M302.856 44.6467C298.459 44.6467 294.782 43.1602 291.825 40.1873C288.907 37.2143 287.448 33.5372 287.448 29.1561C287.448 24.7749 288.907 21.0978 291.825 18.1249C294.782 15.1519 298.459 13.6655 302.856 13.6655C305.697 13.6655 308.285 14.35 310.619 15.7191C312.954 17.0883 314.724 18.9268 315.931 21.2347L309.452 25.0487C308.868 23.8361 307.973 22.8777 306.767 22.1736C305.6 21.4694 304.277 21.1174 302.798 21.1174C300.541 21.1174 298.673 21.8802 297.195 23.4058C295.716 24.8922 294.977 26.809 294.977 29.1561C294.977 31.464 295.716 33.3808 297.195 34.9064C298.673 36.3928 300.541 37.1361 302.798 37.1361C304.316 37.1361 305.658 36.8036 306.825 36.1386C308.032 35.4345 308.927 34.4761 309.51 33.2634L316.047 37.0187C314.763 39.3267 312.954 41.1848 310.619 42.593C308.285 43.9621 305.697 44.6467 302.856 44.6467Z" fill="black"/>
<path d="M345.297 22.5256C348.876 24.5989 350.666 27.7283 350.666 31.9139C350.666 35.3953 349.441 38.2509 346.989 40.4806C344.538 42.7103 341.522 43.8252 337.942 43.8252H320.608V2.75163H336.717C340.219 2.75163 343.157 3.84692 345.53 6.03751C347.943 8.18898 349.149 10.9468 349.149 14.3109C349.149 17.7141 347.865 20.4524 345.297 22.5256ZM336.717 10.3209H328.662V19.3571H336.717C337.962 19.3571 338.993 18.9268 339.81 18.0662C340.666 17.2056 341.094 16.1299 341.094 14.839C341.094 13.5481 340.686 12.4724 339.869 11.6118C339.051 10.7512 338.001 10.3209 336.717 10.3209ZM337.942 36.2559C339.304 36.2559 340.433 35.8061 341.328 34.9064C342.223 33.9675 342.67 32.794 342.67 31.3858C342.67 30.0167 342.223 28.8822 341.328 27.9825C340.433 27.0437 339.304 26.5743 337.942 26.5743H328.662V36.2559H337.942Z" fill="black"/>
<path d="M363.126 19.5331C363.826 17.6555 364.974 16.2472 366.569 15.3084C368.204 14.3696 370.013 13.9002 371.998 13.9002V22.3496C369.702 22.0758 367.639 22.5452 365.811 23.7578C364.021 24.9705 363.126 26.985 363.126 29.8015V43.8252H355.597V14.4869H363.126V19.5331Z" fill="black"/>
<path d="M380.136 10.9663C378.891 10.9663 377.802 10.5165 376.868 9.61678C375.973 8.67796 375.526 7.58266 375.526 6.33089C375.526 5.07913 375.973 3.98384 376.868 3.04501C377.802 2.10619 378.891 1.63677 380.136 1.63677C381.421 1.63677 382.51 2.10619 383.405 3.04501C384.339 3.98384 384.806 5.07913 384.806 6.33089C384.806 7.58266 384.339 8.67796 383.405 9.61678C382.51 10.5165 381.421 10.9663 380.136 10.9663ZM376.401 43.8252V14.4869H383.93V43.8252H376.401Z" fill="black"/>
<path d="M412.943 2.75163H420.472V43.8252H412.943V40.3633C410.725 43.2189 407.573 44.6467 403.487 44.6467C399.557 44.6467 396.191 43.1602 393.39 40.1873C390.627 37.1752 389.246 33.4981 389.246 29.1561C389.246 24.814 390.627 21.1565 393.39 18.1836C396.191 15.1715 399.557 13.6655 403.487 13.6655C407.573 13.6655 410.725 15.0933 412.943 17.9488V2.75163ZM399.051 35.1411C400.608 36.6667 402.553 37.4295 404.888 37.4295C407.223 37.4295 409.149 36.6667 410.666 35.1411C412.184 33.5764 412.943 31.5814 412.943 29.1561C412.943 26.7308 412.184 24.7553 410.666 23.2297C409.149 21.665 407.223 20.8827 404.888 20.8827C402.553 20.8827 400.608 21.665 399.051 23.2297C397.534 24.7553 396.775 26.7308 396.775 29.1561C396.775 31.5814 397.534 33.5764 399.051 35.1411Z" fill="black"/>
<path d="M449.712 14.4869H457.066V42.417C457.066 46.9546 455.568 50.4165 452.572 52.8027C449.615 55.1889 446.035 56.382 441.833 56.382C438.681 56.382 435.899 55.7756 433.486 54.563C431.113 53.3503 429.284 51.5705 428 49.2234L434.42 45.5268C435.899 48.2651 438.447 49.6342 442.066 49.6342C444.44 49.6342 446.307 49.0083 447.669 47.7565C449.031 46.5048 449.712 44.7249 449.712 42.417V39.2484C447.494 42.2214 444.381 43.7078 440.373 43.7078C436.249 43.7078 432.786 42.2605 429.984 39.3658C427.222 36.432 425.84 32.8722 425.84 28.6867C425.84 24.5402 427.241 21 430.043 18.0662C432.844 15.1324 436.288 13.6655 440.373 13.6655C444.381 13.6655 447.494 15.1519 449.712 18.1249V14.4869ZM435.646 34.4956C437.202 35.9821 439.167 36.7253 441.541 36.7253C443.914 36.7253 445.86 35.9821 447.377 34.4956C448.934 32.97 449.712 31.0337 449.712 28.6867C449.712 26.3787 448.934 24.4815 447.377 22.995C445.86 21.4694 443.914 20.7066 441.541 20.7066C439.167 20.7066 437.202 21.4694 435.646 22.995C434.128 24.4815 433.369 26.3787 433.369 28.6867C433.369 31.0337 434.128 32.97 435.646 34.4956Z" fill="black"/>
<path d="M470.256 32.2659C471.267 35.943 474.011 37.7815 478.485 37.7815C481.365 37.7815 483.544 36.8036 485.023 34.8477L491.093 38.3683C488.213 42.5539 483.972 44.6467 478.369 44.6467C473.544 44.6467 469.672 43.1798 466.754 40.2459C463.835 37.3121 462.376 33.6155 462.376 29.1561C462.376 24.7358 463.816 21.0587 466.695 18.1249C469.575 15.1519 473.271 13.6655 477.785 13.6655C482.065 13.6655 485.587 15.1519 488.349 18.1249C491.151 21.0978 492.552 24.7749 492.552 29.1561C492.552 30.134 492.455 31.1706 492.26 32.2659H470.256ZM470.139 26.3983H485.023C484.594 24.4033 483.7 22.9168 482.338 21.9389C481.015 20.9609 479.497 20.4719 477.785 20.4719C475.762 20.4719 474.089 21 472.766 22.0562C471.443 23.0733 470.567 24.5206 470.139 26.3983Z" fill="black"/>
</svg>
