<?xml version="1.0" encoding="UTF-8"?>
<svg xmlns:xodm="http://www.corel.com/coreldraw/odm/2003" xmlns="http://www.w3.org/2000/svg" xmlns:xlink="http://www.w3.org/1999/xlink" version="1.1" id="Layer_1" x="0px" y="0px" viewBox="0 0 2500 653" style="enable-background:new 0 0 2500 653;" xml:space="preserve">
<style type="text/css">
	.st0{fill-rule:evenodd;clip-rule:evenodd;fill:#1C68F3;}
	.st1{fill-rule:evenodd;clip-rule:evenodd;fill:#FFFFFF;}
	.st2{fill:#1C68F3;}
</style>
<g id="Layer_x0020_1">
	<g id="_1705389292880">
		<g>
			<path class="st0" d="M65,0h522c36,0,65,29,65,65v522c0,36-29,65-65,65H65c-36,0-65-29-65-65V65C0,29,29,0,65,0z"></path>
			<path class="st1" d="M562,235v131H170l0,0h-17c18,79,89,138,173,138c70,0,131-40,159-99h76v110c0,26-21,47-47,47H138     c-26,0-47-21-47-47V235h470H562z M441,405c-25,36-67,60-114,60c-48,0-89-24-114-60h229H441z M226,267c-37,0-67,27-72,63h40     c4-14,17-24,32-24s28,10,32,24h40C293,295,262,267,226,267z M427,267c-37,0-67,27-72,63h40c4-14,17-24,32-24s28,10,32,24h40     C494,295,463,267,427,267z M515,92c26,0,47,21,47,47v57H92v-57c0-26,21-47,47-47H515z"></path>
		</g>
		<path class="st2" d="M1905,217c71,0,152,28,157,116h-99c-2-26-26-37-57-37c-29,0-42,11-42,24c0,11,8,21,35,26l63,10    c63,12,104,42,104,102c0,78-70,114-157,114c-88,0-159-37-166-126l99,1c5,29,29,42,64,42c30,0,48-9,48-24c0-11-10-20-32-24l-68-12    c-58-10-98-42-98-101c0-71,60-112,149-112l0,0V217z M1486,218c37,0,67,10,92,26v-18h112v336h-112v-19c-25,16-55,26-92,26    c-90,0-166-75-166-175s76-175,166-175l0,0V218z M832,90l168,252l167-252h87v472h-117V326l-105,162v1h-65v-1L862,325l1,238H746V91    h87L832,90z M2239,70v282l117-126h134l-127,137l138,199h-134l-80-116l-47,51v66h-112V72h112L2239,70z M1508,309c-46,0-79,37-79,84    c0,46,33,83,79,83c25,0,49-7,70-31V341C1557,317,1533,309,1508,309L1508,309z"></path>
	</g>
</g>
</svg>
