<?xml version="1.0" encoding="utf-8"?>
<!-- Generator: Adobe Illustrator 26.0.3, SVG Export Plug-In . SVG Version: 6.00 Build 0)  -->
<svg version="1.0" id="katman_1" xmlns="http://www.w3.org/2000/svg" xmlns:xlink="http://www.w3.org/1999/xlink" x="0px" y="0px"
	 viewBox="0 0 800 600" style="enable-background:new 0 0 800 600;" xml:space="preserve">
<style type="text/css">
	.st0{clip-path:url(#SVGID_00000041991658321642911000000006607821664573250989_);}
	.st1{fill:#1D0928;}
	.st2{fill:#7E49FC;}
	.st3{fill:#0066FF;}
</style>
<g>
	<defs>
		<rect id="SVGID_1_" x="76.1" y="187.9" width="647.5" height="222.9"/>
	</defs>
	<clipPath id="SVGID_00000155861164585643484100000010011384357079791035_">
		<use xlink:href="#SVGID_1_"  style="overflow:visible;"/>
	</clipPath>
	<g style="clip-path:url(#SVGID_00000155861164585643484100000010011384357079791035_);">
		<path class="st1" d="M360.3,350.6H335v-63.3h25.3V350.6z"/>
		<path class="st1" d="M347.6,282.5c-3.5,0-6.9-1.4-9.4-3.9c-2.5-2.5-3.9-5.9-3.9-9.4l0,0c0-3.5,1.4-6.9,3.9-9.4
			c2.5-2.5,5.9-3.9,9.4-3.9l0,0c3.5,0,6.9,1.4,9.4,3.9c2.5,2.5,3.9,5.9,3.9,9.4l0,0c0,3.5-1.4,6.9-3.9,9.4
			C354.5,281.1,351.2,282.5,347.6,282.5L347.6,282.5z"/>
		<path class="st1" d="M458.4,350.6h-85l43.4-63.8h-39.8v-20h81.5l-43.3,63.8h43.3L458.4,350.6z"/>
		<path class="st1" d="M559.1,313c0.2,6.4-1.2,12.7-4,18.4c-2.5,4.8-6.1,9-10.6,12c-4.4,2.9-9.2,5.1-14.3,6.4
			c-5,1.3-10.1,1.9-15.3,1.9c-7.1,0-14.1-1.2-20.7-3.6c-6.7-2.4-12.5-6.7-16.9-12.3c-4.5-5.8-6.8-13.4-6.8-22.7v-46.3h25.2v39.7
			c-0.2,4.7,0.7,9.3,2.4,13.7c1.3,3.3,3.7,6.1,6.7,7.9c3.1,1.7,6.5,2.6,10.1,2.5c3.4,0.1,6.9-0.8,9.9-2.5c3-1.8,5.4-4.6,6.7-7.9
			c1.7-4.3,2.5-9,2.4-13.7v-39.9H559L559.1,313z"/>
		<path class="st1" d="M676.4,350.6h-25.3V302l-22.8,28.1h-2L603.5,302v48.6h-24.6v-83.8h22.9l25.8,31.5l25.9-31.5h22.9V350.6z"/>
		<path class="st1" d="M723,350.6h-25.3v-63.3H723V350.6z"/>
		<path class="st1" d="M710.3,282.5c-1.7,0-3.5-0.3-5.1-1c-1.6-0.7-3.1-1.6-4.3-2.9c-1.2-1.2-2.2-2.7-2.9-4.3c-0.7-1.6-1-3.3-1-5.1
			l0,0c0-1.7,0.3-3.5,1-5.1c0.7-1.6,1.6-3.1,2.9-4.3c1.2-1.2,2.7-2.2,4.3-2.9c1.6-0.7,3.3-1,5.1-1l0,0c3.5,0,6.9,1.4,9.4,3.9
			s3.9,5.9,3.9,9.4l0,0c0,3.5-1.4,6.9-3.9,9.4S713.9,282.5,710.3,282.5L710.3,282.5z"/>
		<path class="st2" d="M77.3,289.2l70.3-101.3l35.4,51.3l-35.9,51.3H78c-0.2,0-0.3,0-0.4-0.1s-0.2-0.2-0.3-0.3
			c-0.1-0.1-0.1-0.3-0.1-0.5C77.2,289.4,77.2,289.3,77.3,289.2L77.3,289.2z"/>
		<path class="st2" d="M288.8,289.2l-70.3-101.3l-35.4,51.3l35.9,51.3h69.1c0.2,0,0.3,0,0.4-0.1c0.1-0.1,0.2-0.2,0.3-0.3
			c0.1-0.1,0.1-0.3,0.1-0.5C288.9,289.4,288.9,289.3,288.8,289.2L288.8,289.2z"/>
		<path class="st3" d="M290,303.8c0.2,14.2-2.4,28.2-7.7,41.4c-5.3,13.1-13.1,25.1-23.1,35.2c-9.9,10.1-21.8,18.1-34.9,23.5
			c-13.1,5.5-27.1,8.3-41.2,8.3c-14.2,0-28.2-2.8-41.2-8.3c-13.1-5.5-24.9-13.5-34.9-23.5c-9.9-10.1-17.8-22-23.1-35.2
			c-5.3-13.1-7.9-27.2-7.7-41.4h68c-0.1,5.2,0.8,10.3,2.7,15.2c1.9,4.8,4.8,9.2,8.4,12.9c3.6,3.7,8,6.6,12.7,8.7c4.8,2,9.9,3,15.1,3
			c5.2,0,10.3-1,15.1-3c4.8-2,9.1-5,12.7-8.7c3.6-3.7,6.5-8.1,8.4-12.9c1.9-4.8,2.8-10,2.7-15.2H290z"/>
	</g>
</g>
</svg>
