<?xml version="1.0" encoding="UTF-8" standalone="no"?>
<svg
   xmlns:dc="http://purl.org/dc/elements/1.1/"
   xmlns:cc="http://creativecommons.org/ns#"
   xmlns:rdf="http://www.w3.org/1999/02/22-rdf-syntax-ns#"
   xmlns:svg="http://www.w3.org/2000/svg"
   xmlns="http://www.w3.org/2000/svg"
   viewBox="0 0 775 125"
   id="svg2"
   version="1.1"><metadata
     id="metadata8"><rdf:RDF><cc:Work
         rdf:about=""><dc:format>image/svg+xml</dc:format><dc:type
           rdf:resource="http://purl.org/dc/dcmitype/StillImage" /></cc:Work></rdf:RDF></metadata><defs
     id="defs6"><clipPath
       id="clipPath18"
       clipPathUnits="userSpaceOnUse"><path
         id="path16"
         d="M 0,595.276 H 841.89 V 0 H 0 Z" /></clipPath></defs><g
     transform="matrix(1.333333, 0, 0, -1.333333, -166.278778, 446.519287)"
     id="g10"><g
       id="g12"><g
         clip-path="url(#clipPath18)"
         id="g14"><g
           transform="translate(163.8849,282.7218)"
           id="g20"><path
             id="path22"
             style="fill:#0ef8f3;fill-opacity:1;fill-rule:nonzero;stroke:none"
             d="m 0,0 h -21.268 c -3.83,0 -6.935,3.105 -6.935,6.935 0,3.83 3.105,6.935 6.935,6.935 H 0 c 3.83,0 6.935,-3.105 6.935,-6.935 C 6.935,3.105 3.83,0 0,0" /></g><g
           transform="translate(237.8609,316.2422)"
           id="g24"><path
             id="path26"
             style="fill:#ff7800;fill-opacity:1;fill-rule:nonzero;stroke:none"
             d="m 0,0 h -6.935 c -3.83,0 -6.935,3.105 -6.935,6.935 v 0 c 0,3.831 3.105,6.936 6.935,6.936 H 0 c 3.83,0 6.935,-3.105 6.935,-6.936 v 0 C 6.935,3.105 3.83,0 0,0" /></g><g
           transform="translate(206.267,248.3538)"
           id="g28"><path
             id="path30"
             style="fill:#0ef8f3;fill-opacity:1;fill-rule:nonzero;stroke:none"
             d="m 0,0 h -63.65 c -3.83,0 -6.935,3.105 -6.935,6.935 v 0 c 0,3.83 3.105,6.935 6.935,6.935 H 0 c 3.83,0 6.935,-3.105 6.935,-6.935 v 0 C 6.935,3.105 3.83,0 0,0" /></g><g
           transform="translate(205.5735,282.8971)"
           id="g32"><path
             id="path34"
             style="fill:#ff7800;fill-opacity:1;fill-rule:nonzero;stroke:none"
             d="M 0,0 H 3.277 4.24 24.599 c 5.439,0 10.337,-3.972 10.808,-9.391 0.531,-6.111 -4.273,-11.235 -10.273,-11.235 -3.691,-0.158 -6.64,-3.253 -6.64,-6.982 v 0 c 0,-3.804 3.064,-6.885 6.858,-6.928 v -0.007 c 0.018,0 0.034,0.002 0.052,0.002 9.561,0.021 17.776,5.705 21.516,13.868 1.377,3.007 2.166,6.34 2.166,9.863 0,10.326 -6.597,19.232 -15.804,22.533 -2.479,0.889 -5.128,1.201 -7.761,1.201 H 25.352 22.517 21.144 L -0.028,12.74 c -5.415,0 -10.293,3.939 -10.792,9.331 -0.561,6.066 4.139,11.153 10.058,11.274 h 1.456 c 0.072,0 0.138,0.019 0.21,0.021 3.73,0.114 6.725,3.156 6.725,6.914 0,3.592 -2.741,6.512 -6.24,6.865 -0.232,0.024 -0.457,0.07 -0.695,0.07 H 0 c -9.584,0 -17.821,-5.692 -21.568,-13.87 -1.377,-3.007 -2.166,-6.34 -2.166,-9.864 0,-8.992 5.006,-16.801 12.381,-20.821 C -7.919,0.789 -3.998,0.001 -0.088,0 Z" /></g><g
           transform="translate(205.5735,330.1125)"
           id="g36"><path
             id="path38"
             style="fill:#0ef8f3;fill-opacity:1;fill-rule:nonzero;stroke:none"
             d="m 0,0 h -62.957 c -3.83,0 -6.935,-3.105 -6.935,-6.935 0,-3.83 3.105,-6.935 6.935,-6.935 h 41.389 C -17.821,-5.693 -9.584,0 0,0" /></g><g
           transform="translate(289.9714,262.3349)"
           id="g40"><path
             id="path42"
             style="fill:#332e2c;fill-opacity:1;fill-rule:nonzero;stroke:none"
             d="M 0,0 V 53.797 H 36.609 V 43.392 H 11.714 V 32.448 h 21.35 V 22.043 H 11.714 V 10.405 H 36.609 L 36.609,0 Z" /></g><g
           transform="translate(357.1781,305.4957)"
           id="g44"><path
             id="path46"
             style="fill:#332e2c;fill-opacity:1;fill-rule:nonzero;stroke:none"
             d="M 0,0 H -0.385 L -6.32,-20.425 H 6.012 Z M 12.717,-43.161 8.863,-30.367 H -9.094 l -3.854,-12.794 h -11.869 l 17.726,53.798 h 14.49 l 17.496,-53.798 z" /></g><g
           transform="translate(406.9669,261.4098)"
           id="g48"><path
             id="path50"
             style="fill:#332e2c;fill-opacity:1;fill-rule:nonzero;stroke:none"
             d="m 0,0 c -4.729,0 -8.735,0.81 -12.024,2.431 -3.288,1.62 -6.088,3.717 -8.4,6.291 l 7.707,7.793 c 3.648,-4.074 8.143,-6.11 13.488,-6.11 2.877,0 5.009,0.585 6.397,1.756 1.387,1.171 2.081,2.724 2.081,4.661 0,1.476 -0.412,2.71 -1.234,3.703 -0.822,0.992 -2.492,1.668 -5.009,2.024 l -5.317,0.687 c -5.704,0.721 -9.881,2.444 -12.526,5.17 -2.646,2.727 -3.968,6.353 -3.968,10.881 0,2.418 0.461,4.63 1.387,6.636 0.924,2.007 2.246,3.73 3.969,5.171 1.72,1.44 3.828,2.56 6.32,3.357 2.492,0.797 5.33,1.196 8.516,1.196 4.058,0 7.631,-0.645 10.713,-1.931 3.083,-1.286 5.73,-3.164 7.939,-5.634 l -7.784,-7.875 c -1.285,1.474 -2.84,2.682 -4.663,3.624 -1.824,0.94 -4.123,1.412 -6.897,1.412 -2.622,0 -4.576,-0.459 -5.859,-1.374 -1.285,-0.915 -1.927,-2.187 -1.927,-3.814 0,-1.832 0.501,-3.154 1.504,-3.968 1.001,-0.814 2.632,-1.398 4.892,-1.753 l 5.32,-0.849 c 5.549,-0.874 9.659,-2.586 12.332,-5.132 2.67,-2.545 4.006,-6.159 4.006,-10.84 0,-2.572 -0.461,-4.937 -1.387,-7.097 C 18.652,8.256 17.303,6.403 15.531,4.861 13.757,3.317 11.561,2.121 8.941,1.273 6.32,0.426 3.34,0 0,0" /></g><g
           transform="translate(447.7397,262.3349)"
           id="g52"><path
             id="path54"
             style="fill:#332e2c;fill-opacity:1;fill-rule:nonzero;stroke:none"
             d="M 0,0 V 21.041 L -18.42,53.797 H -5.319 L 6.242,32.371 H 6.397 L 17.494,53.797 H 30.213 L 11.79,21.118 V 0 Z" /></g><g
           transform="translate(498.6059,261.4098)"
           id="g56"><path
             id="path58"
             style="fill:#332e2c;fill-opacity:1;fill-rule:nonzero;stroke:none"
             d="m 0,0 c -4.729,0 -8.735,0.81 -12.024,2.431 -3.288,1.62 -6.088,3.717 -8.4,6.291 l 7.707,7.793 c 3.648,-4.074 8.143,-6.11 13.488,-6.11 2.877,0 5.009,0.585 6.397,1.756 1.387,1.171 2.081,2.724 2.081,4.661 0,1.476 -0.412,2.71 -1.234,3.703 -0.822,0.992 -2.492,1.668 -5.009,2.024 l -5.317,0.687 c -5.704,0.721 -9.881,2.444 -12.526,5.17 -2.646,2.727 -3.968,6.353 -3.968,10.881 0,2.418 0.461,4.63 1.387,6.636 0.924,2.007 2.246,3.73 3.969,5.171 1.72,1.44 3.828,2.56 6.32,3.357 2.492,0.797 5.33,1.196 8.516,1.196 4.058,0 7.631,-0.645 10.713,-1.931 3.083,-1.286 5.73,-3.164 7.939,-5.634 l -7.784,-7.875 c -1.285,1.474 -2.84,2.682 -4.663,3.624 -1.824,0.94 -4.123,1.412 -6.897,1.412 -2.622,0 -4.576,-0.459 -5.859,-1.374 -1.285,-0.915 -1.927,-2.187 -1.927,-3.814 0,-1.832 0.501,-3.154 1.504,-3.968 1.001,-0.814 2.632,-1.398 4.892,-1.753 l 5.32,-0.849 c 5.549,-0.874 9.659,-2.586 12.332,-5.132 2.67,-2.545 4.006,-6.159 4.006,-10.84 0,-2.572 -0.461,-4.937 -1.387,-7.097 C 18.652,8.256 17.303,6.403 15.531,4.861 13.757,3.317 11.561,2.121 8.941,1.273 6.32,0.426 3.34,0 0,0" /></g><g
           transform="translate(536.3708,262.3349)"
           id="g60"><path
             id="path62"
             style="fill:#332e2c;fill-opacity:1;fill-rule:nonzero;stroke:none"
             d="M 0,0 -12.177,53.797 H -0.616 L 4.472,27.978 7.323,13.026 h 0.231 l 3.391,14.952 5.935,25.819 h 12.793 l 6.012,-25.819 3.314,-14.952 h 0.232 l 2.852,14.952 5.163,25.819 h 11.1 L 45.859,0 H 32.526 l -6.783,29.134 -2.62,11.792 H 22.892 L 20.194,29.134 13.411,0 Z" /></g><g
           transform="translate(621.152,305.4957)"
           id="g64"><path
             id="path66"
             style="fill:#332e2c;fill-opacity:1;fill-rule:nonzero;stroke:none"
             d="M 0,0 H -0.385 L -6.32,-20.425 H 6.012 Z M 12.717,-43.161 8.863,-30.367 H -9.094 l -3.854,-12.794 h -11.869 l 17.726,53.798 h 14.49 l 17.496,-53.798 z" /></g><g
           transform="translate(665.2371,291.9306)"
           id="g68"><path
             id="path70"
             style="fill:#332e2c;fill-opacity:1;fill-rule:nonzero;stroke:none"
             d="m 0,0 h 12.332 c 1.746,0 3.121,0.449 4.123,1.349 1.003,0.899 1.504,2.222 1.504,3.969 V 8.71 c 0,1.746 -0.501,3.07 -1.504,3.969 -1.002,0.898 -2.377,1.349 -4.123,1.349 L 0,14.028 Z m -11.714,-29.596 v 53.798 h 25.433 c 2.518,0 4.78,-0.425 6.783,-1.273 2.003,-0.847 3.712,-2.017 5.124,-3.506 1.413,-1.491 2.507,-3.302 3.276,-5.434 C 29.673,11.856 30.06,9.531 30.06,7.014 30.06,4.444 29.673,2.106 28.902,0 28.133,-2.107 27.039,-3.905 25.626,-5.395 24.214,-6.886 22.505,-8.054 20.502,-8.901 18.499,-9.75 16.237,-10.174 13.719,-10.174 H 0 v -19.422 z" /></g></g></g></g></svg>